<?xml version="1.0" encoding="UTF-8"?> <svg xmlns="http://www.w3.org/2000/svg" xmlns:xlink="http://www.w3.org/1999/xlink" width="800" height="251.35" viewBox="0 0 800 251.35"><defs><style> .cls-1 { fill: none; } .cls-2 { fill: url(#linear-gradient-13); } .cls-2, .cls-3, .cls-4, .cls-5, .cls-6, .cls-7, .cls-8, .cls-9, .cls-10, .cls-11, .cls-12, .cls-13, .cls-14, .cls-15, .cls-16, .cls-17 { isolation: isolate; } .cls-2, .cls-3, .cls-4, .cls-5, .cls-7, .cls-8, .cls-9, .cls-10, .cls-11, .cls-12, .cls-13, .cls-14, .cls-15, .cls-17 { mix-blend-mode: multiply; } .cls-3 { fill: url(#linear-gradient-12); } .cls-4 { fill: url(#linear-gradient-11); } .cls-5 { fill: url(#linear-gradient-10); } .cls-18, .cls-16 { fill: #c23f49; } .cls-19 { fill: #f3e8d0; } .cls-7 { fill: url(#linear-gradient-8); } .cls-8 { fill: url(#linear-gradient-5); } .cls-9 { fill: url(#linear-gradient-7); } .cls-10 { fill: url(#linear-gradient-6); } .cls-11 { fill: url(#linear-gradient-4); } .cls-12 { fill: url(#linear-gradient-9); } .cls-13 { fill: url(#linear-gradient-2); } .cls-14 { fill: url(#linear-gradient-3); } .cls-20, .cls-17 { fill: #ebe2ce; } .cls-21 { clip-path: url(#clippath-1); } .cls-22 { clip-path: url(#clippath-3); } .cls-23 { clip-path: url(#clippath-4); } .cls-24 { clip-path: url(#clippath-2); } .cls-25 { clip-path: url(#clippath-6); } .cls-26 { clip-path: url(#clippath-5); } .cls-15 { fill: url(#linear-gradient); } .cls-27 { opacity: .85; } .cls-16 { opacity: .83; } .cls-28 { clip-path: url(#clippath); } .cls-29 { fill: #343434; } .cls-30 { fill: #b63545; } </style><linearGradient id="linear-gradient" x1="14795.88" y1="-4775.07" x2="14793.83" y2="-4790.62" gradientTransform="translate(15117.34 4061.76) rotate(-147.67)" gradientUnits="userSpaceOnUse"><stop offset=".4" stop-color="#c9bba3"></stop><stop offset=".58" stop-color="#e0d5c1" stop-opacity=".54"></stop><stop offset=".79" stop-color="#ebe2ce" stop-opacity="0"></stop></linearGradient><clipPath id="clippath"><path class="cls-1" d="M65.03,172.8c14.63-1.49,29.25-3.01,43.88-4.55l-16.42-36.68c-21.65,15.01-43.3,30.01-64.95,45.01,12.5-1.25,25-2.51,37.5-3.79h0Z"></path></clipPath><clipPath id="clippath-1"><path class="cls-1" d="M0,0c11.97,14.68,23.94,29.35,35.91,44.02,4.61-5.41,9.62-10.99,15.04-16.66,5.27-5.51,10.46-10.63,15.53-15.36C44.73,7.84,21.75,4.15,0,0H0Z"></path></clipPath><clipPath id="clippath-2"><path class="cls-1" d="M134.52,138.26c-15.43-12.07-31.27-24.38-46.7-36.44,5.28-4.82,11.09-9.71,16.56-15.2,5.8-5.82,11.21-11.56,16.25-17.16,4.62,22.94,9.25,45.87,13.88,68.81Z"></path></clipPath><clipPath id="clippath-3"><path class="cls-1" d="M133.9,54.38c-10.32,12.57-23.36,26.58-39.58,40.59-21.9,18.9-43.26,32.32-61.04,41.77-4.2,9.82-8.41,19.65-12.61,29.47,2.28,3.46,4.57,6.92,6.86,10.38-3.58,1.81-7.15,3.63-10.72,5.44-5.38-5.76-10.76-11.51-16.15-17.27l-.18-66.51,28.1-45.74L75.58,2.62c6,.45,13.67,1.56,22.25,4.25,8.41,2.63,15.23,6.01,20.36,9,3.51,5.36,7.4,12.31,10.65,20.84,2.47,6.49,4.04,12.49,5.06,17.67h0Z"></path></clipPath><clipPath id="clippath-4"><path class="cls-1" d="M81.4,53.38c-20.29,23.68-40.57,47.37-60.86,71.05-1.24,19.2-2.49,38.39-3.73,57.58-5.38-5.76-10.76-11.51-16.15-17.27l-.18-66.51,28.1-45.74c17.61.29,35.21.59,52.82.88h0Z"></path></clipPath><clipPath id="clippath-5"><path class="cls-1" d="M85.75,56.53c-20.06,23.92-40.12,47.85-60.18,71.77-.57,4.59-1.06,8.34-1.41,10.93-1.14,8.59-1.32,9.3-1.91,14.26-.2,1.7-.51,4.44-1.03,8.48-.23,1.78-.42,3.25-.56,4.22,4.2-9.82,8.41-19.65,12.61-29.47,6.44-3.36,13.08-7.06,19.88-11.1,9.88-5.88,18.96-11.84,27.27-17.71,1-9.43,1.99-18.86,2.96-28.3.8-7.7,1.58-15.4,2.37-23.09h0Z"></path></clipPath><clipPath id="clippath-6"><path class="cls-1" d="M42.4,251.35l36.46-17.73c-17.11-19.01-34.21-38.02-51.32-57.04,4.96,24.92,9.91,49.84,14.87,74.76h0Z"></path></clipPath><linearGradient id="linear-gradient-2" x1="10068.52" y1="-8202.3" x2="10069.39" y2="-8220.83" gradientTransform="translate(9986.21 8493.03) rotate(-100.45)" gradientUnits="userSpaceOnUse"><stop offset=".32" stop-color="#c9bba3"></stop><stop offset=".32" stop-color="#c9bba3" stop-opacity=".99"></stop><stop offset=".47" stop-color="#c9bba3" stop-opacity=".64"></stop><stop offset=".61" stop-color="#e0d5c1" stop-opacity=".36"></stop><stop offset=".74" stop-color="#ebe2ce" stop-opacity=".16"></stop><stop offset=".85" stop-color="#ebe2ce" stop-opacity=".04"></stop><stop offset=".94" stop-color="#ebe2ce" stop-opacity="0"></stop></linearGradient><linearGradient id="linear-gradient-3" x1="-261.42" y1="-1644.52" x2="-262.2" y2="-1663.91" gradientTransform="translate(732.42 -1482.44) rotate(14.75) scale(1 -1)" xlink:href="#linear-gradient-2"></linearGradient><linearGradient id="linear-gradient-4" x1="10077.56" y1="-8283.47" x2="10040.34" y2="-8253.71" gradientTransform="translate(9986.21 8493.03) rotate(-100.45)" gradientUnits="userSpaceOnUse"><stop offset=".66" stop-color="#c9bba3"></stop><stop offset=".68" stop-color="#c9bba3" stop-opacity=".75"></stop><stop offset=".7" stop-color="#e0d5c1" stop-opacity=".52"></stop><stop offset=".72" stop-color="#e0d5c1" stop-opacity=".33"></stop><stop offset=".74" stop-color="#ebe2ce" stop-opacity=".18"></stop><stop offset=".77" stop-color="#ebe2ce" stop-opacity=".08"></stop><stop offset=".8" stop-color="#ebe2ce" stop-opacity=".02"></stop><stop offset=".86" stop-color="#ebe2ce" stop-opacity="0"></stop></linearGradient><linearGradient id="linear-gradient-5" x1="10048.64" y1="-8249.95" x2="10055.76" y2="-8255.81" gradientTransform="translate(9986.21 8493.03) rotate(-100.45)" gradientUnits="userSpaceOnUse"><stop offset=".68" stop-color="#c9bba3"></stop><stop offset=".8" stop-color="#e0d5c1" stop-opacity=".54"></stop><stop offset=".93" stop-color="#ebe2ce" stop-opacity="0"></stop></linearGradient><linearGradient id="linear-gradient-6" x1="10114.38" y1="-8233.18" x2="10130.55" y2="-8244.1" gradientTransform="translate(9986.21 8493.03) rotate(-100.45)" gradientUnits="userSpaceOnUse"><stop offset=".58" stop-color="#c9bba3"></stop><stop offset=".75" stop-color="#e0d5c1" stop-opacity=".54"></stop><stop offset=".93" stop-color="#ebe2ce" stop-opacity="0"></stop></linearGradient><linearGradient id="linear-gradient-7" x1="10060.75" y1="-8199.51" x2="10049.3" y2="-8190.58" gradientTransform="translate(9986.21 8493.03) rotate(-100.45)" gradientUnits="userSpaceOnUse"><stop offset=".31" stop-color="#c9bba3"></stop><stop offset=".49" stop-color="#e0d5c1" stop-opacity=".54"></stop><stop offset=".69" stop-color="#ebe2ce" stop-opacity="0"></stop></linearGradient><linearGradient id="linear-gradient-8" x1="10154.3" y1="-8236.12" x2="10132.42" y2="-8276.95" gradientTransform="translate(9986.21 8493.03) rotate(-100.45)" gradientUnits="userSpaceOnUse"><stop offset=".73" stop-color="#c9bba3"></stop><stop offset=".77" stop-color="#e0d5c1" stop-opacity=".54"></stop><stop offset=".81" stop-color="#ebe2ce" stop-opacity="0"></stop></linearGradient><linearGradient id="linear-gradient-9" x1="10035.3" y1="-8181.81" x2="10016.78" y2="-8202.82" gradientTransform="translate(9986.21 8493.03) rotate(-100.45)" gradientUnits="userSpaceOnUse"><stop offset=".54" stop-color="#c9bba3"></stop><stop offset=".59" stop-color="#e0d5c1" stop-opacity=".54"></stop><stop offset=".64" stop-color="#ebe2ce" stop-opacity="0"></stop></linearGradient><linearGradient id="linear-gradient-10" x1="191.45" y1="923.61" x2="186.98" y2="891.95" gradientTransform="translate(-17.48 985.97) rotate(-7.54) scale(1 -1)" gradientUnits="userSpaceOnUse"><stop offset=".22" stop-color="#c9bba3"></stop><stop offset=".28" stop-color="#c9bba3" stop-opacity=".75"></stop><stop offset=".35" stop-color="#e0d5c1" stop-opacity=".52"></stop><stop offset=".43" stop-color="#e0d5c1" stop-opacity=".33"></stop><stop offset=".52" stop-color="#ebe2ce" stop-opacity=".18"></stop><stop offset=".61" stop-color="#ebe2ce" stop-opacity=".08"></stop><stop offset=".73" stop-color="#ebe2ce" stop-opacity=".02"></stop><stop offset=".94" stop-color="#ebe2ce" stop-opacity="0"></stop></linearGradient><linearGradient id="linear-gradient-11" x1="227.19" y1="874.45" x2="178.38" y2="886.38" gradientTransform="translate(-17.48 985.97) rotate(-7.54) scale(1 -1)" gradientUnits="userSpaceOnUse"><stop offset=".19" stop-color="#c9bba3"></stop><stop offset=".21" stop-color="#c9bba3" stop-opacity=".87"></stop><stop offset=".25" stop-color="#c9bba3" stop-opacity=".64"></stop><stop offset=".3" stop-color="#e0d5c1" stop-opacity=".44"></stop><stop offset=".36" stop-color="#e0d5c1" stop-opacity=".28"></stop><stop offset=".42" stop-color="#ebe2ce" stop-opacity=".15"></stop><stop offset=".51" stop-color="#ebe2ce" stop-opacity=".06"></stop><stop offset=".62" stop-color="#ebe2ce" stop-opacity="0"></stop><stop offset=".94" stop-color="#ebe2ce" stop-opacity="0"></stop></linearGradient><linearGradient id="linear-gradient-12" x1="14822.29" y1="-4779.34" x2="14827.71" y2="-4776.84" gradientTransform="translate(15117.34 4061.76) rotate(-147.67)" gradientUnits="userSpaceOnUse"><stop offset=".48" stop-color="#c9bba3"></stop><stop offset=".69" stop-color="#e0d5c1" stop-opacity=".54"></stop><stop offset=".93" stop-color="#ebe2ce" stop-opacity="0"></stop></linearGradient><linearGradient id="linear-gradient-13" x1="14788.6" y1="-4770.05" x2="14806.44" y2="-4750.69" gradientTransform="translate(15117.34 4061.76) rotate(-147.67)" gradientUnits="userSpaceOnUse"><stop offset=".18" stop-color="#c9bba3"></stop><stop offset=".45" stop-color="#e0d5c1" stop-opacity=".54"></stop><stop offset=".74" stop-color="#ebe2ce" stop-opacity="0"></stop></linearGradient></defs><g class="cls-6"><g id="Layer_1" data-name="Layer 1"><g><path class="cls-29" d="M231.25,62.48c2.95,1.48,5.65,3.91,8.07,7.28,2.42,3.38,4.43,7.28,6.02,11.72,1.58,4.43,2.74,9.18,3.48,14.25.74,5.07.79,10.03.16,14.88-1.48,11.61-4.33,22.01-8.55,31.19-4.22,9.18-9.39,15.89-15.51,20.11-3.59,2.32-7.71,4.01-12.35,5.07-4.65,1.05-8.44,1.05-11.4,0-7.6-2.33-12.77-8.23-15.51-17.73-.43-1.47-.74-3.59-.95-6.33-.21-2.74-.32-5.8-.32-9.18s.1-6.86.32-10.45c.21-3.59.53-6.86.95-9.81.84-5.27,1.9-10.5,3.17-15.67,1.27-5.17,2.64-9.86,4.12-14.09,1.47-4.22,3.06-7.97,4.75-11.24,1.69-3.27,3.37-5.64,5.07-7.12,1.69-1.27,3.69-2.42,6.02-3.48,2.32-1.05,4.43-1.79,6.33-2.22,2.32-.42,5.07-.32,8.23.32s5.8,1.48,7.91,2.53ZM223.01,151.45c2.95-2.74,5.64-6.44,8.07-11.08,2.42-4.64,4.43-9.6,6.02-14.88,1.58-5.27,2.64-10.66,3.17-16.15.53-5.49.37-10.55-.47-15.2-.63-2.95-1.48-5.91-2.53-8.87-1.06-2.95-2.43-5.59-4.12-7.92-1.69-2.32-3.75-4.22-6.17-5.7-2.43-1.47-5.44-2.22-9.02-2.22-4.01,0-6.65,1.16-7.91,3.48-.43,1.06-1.27,1.58-2.53,1.58-1.48.21-2.9,1.95-4.27,5.22-1.38,3.28-2.69,6.92-3.96,10.92-1.27,4.01-2.27,7.87-3.01,11.56-.74,3.69-1.22,6.17-1.42,7.44-.63,3.38-1.06,6.49-1.27,9.34-.21,2.85-.32,6.92-.32,12.19v7.44c0,1.8.05,3.22.16,4.27.1,1.06.26,1.95.47,2.69.21.74.42,1.43.63,2.06,3.17,6.76,7.39,10.13,12.66,10.13,2.74,0,5.54-.63,8.39-1.9s5.33-2.74,7.44-4.43Z"></path><path class="cls-29" d="M296.15,60.26c8.23-1.27,13.08-.21,14.56,3.17.84,1.48.74,2.75-.32,3.8-.63.63-1.58,1.06-2.85,1.27-1.27.21-3.48.42-6.65.63-7.18.42-12.46,2.11-15.83,5.07-3.38,2.96-6.13,8.34-8.23,16.15-2.11,8.02-4.01,17.73-5.7,29.13-1.69,11.4-2.53,23.43-2.53,36.1,0,3.59-.16,6.02-.47,7.28s-.9,2.32-1.74,3.17c-1.06,1.05-2.22,1.58-3.48,1.58s-2.33-.42-3.17-1.27c-.21-.43-.37-1.06-.47-1.9-.11-.84-.11-2.48,0-4.91.1-2.42.21-5.96.32-10.61.1-4.64.16-10.87.16-18.68,0-5.07.05-10.24.16-15.51.1-5.27.16-10.29.16-15.04s.05-9.02.16-12.82c.1-3.8.16-6.75.16-8.86-.21-8.23-.11-13.4.32-15.52.42-2.11,1.47-3.17,3.17-3.17s2.85.9,3.48,2.69c.63,1.8,1.05,5.44,1.27,10.92l.32,10.13,2.53-5.7c4.64-9.92,12.87-15.62,24.7-17.1Z"></path><path class="cls-29" d="M330.66,108.39v28.5c0,7.39-.05,13.3-.16,17.73-.11,4.43-.32,7.55-.63,9.34s-.79,3.01-1.42,3.64c-.85.84-1.9,1.27-3.17,1.27s-2.33-.53-3.17-1.58c-.42-.42-.69-1.53-.79-3.32-.11-1.79-.16-4.8-.16-9.02,0-1.47.05-3.96.16-7.44.1-3.48.21-7.49.32-12.03.1-4.54.21-9.5.32-14.88.1-5.38.16-10.81.16-16.31.21-9.92.37-17.57.48-22.96.1-5.38.21-9.39.32-12.03.1-2.64.26-4.32.47-5.07.21-.74.52-1.21.95-1.42,1.05-.42,1.74-.63,2.06-.63s1,.43,2.06,1.27l1.9,1.58.32,43.38ZM332.56,20.68c2.11,2.75,2.22,5.91.32,9.5-.42,1.27-1.32,2.38-2.69,3.33-1.38.95-2.59,1.42-3.64,1.42-.63,0-1.69-.74-3.17-2.22-1.27-1.27-1.9-2.9-1.9-4.91s.63-3.96,1.9-5.86c1.27-2.11,2.8-3.27,4.59-3.48,1.79-.21,3.32.53,4.59,2.22Z"></path><path class="cls-29" d="M390.82,58.68c4.64,2.33,7.7,5.49,9.18,9.5.42,1.48.63,3.59.63,6.33s-.21,4.96-.63,6.65c-.42.85-.69,3.85-.79,9.02-.11,5.17-.16,12.19-.16,21.05s-.05,17.84-.16,26.91c-.11,9.08-.32,17.47-.63,25.17-.32,7.7-.63,14.51-.95,20.42-.32,5.91-.69,10.13-1.11,12.66-.85,4.22-1.9,8.12-3.17,11.72-1.27,3.59-2.75,6.22-4.43,7.92-2.33,2.74-5.86,4.48-10.61,5.22-4.75.74-8.71.26-11.87-1.42-2.75-1.69-5.7-4.65-8.86-8.87-3.17-4.22-5.49-8.44-6.97-12.66-2.11-6.12-1.58-9.92,1.58-11.4,3.17-1.48,5.38.42,6.65,5.7.63,3.37,2,6.65,4.12,9.81,2.95,4.85,5.54,7.92,7.76,9.18s4.8,1.37,7.76.32c1.9-.63,3.53-1.95,4.91-3.96,1.37-2.01,2.48-5.07,3.32-9.18.84-4.12,1.47-9.39,1.9-15.83.42-6.44.74-14.52.95-24.22.21-6.75.32-12.4.32-16.94s-.11-6.59-.32-6.17c0,.21-.16,1.06-.47,2.53-.32,1.48-.69,3.06-1.11,4.75-1.06,4.43-2.37,8.18-3.96,11.24-1.58,3.06-3.54,5.65-5.86,7.76-1.69,1.48-3.01,2.42-3.96,2.85-.95.42-2.27.63-3.96.63-5.49,0-10.56-2.64-15.2-7.92-4.64-5.27-7.81-11.92-9.5-19.95-.43-1.9-.74-4.38-.95-7.44-.21-3.06-.32-6.28-.32-9.66s.1-6.7.32-9.97c.21-3.27.53-6.17.95-8.71.84-4.43,2.16-9.23,3.96-14.41,1.79-5.17,3.85-9.55,6.17-13.14,1.69-2.95,4.06-5.91,7.12-8.87,3.06-2.95,5.96-5.07,8.71-6.33,2.95-1.47,6.38-2.22,10.29-2.22s7.02.63,9.34,1.9ZM388.92,87.49c.84-.42,1.32-1.16,1.42-2.22.1-1.05.16-3.59.16-7.6,0-4.22-.05-6.86-.16-7.92-.11-1.05-.69-1.9-1.74-2.53-2.96-1.9-6.12-2.48-9.5-1.74-3.38.74-6.6,2.59-9.66,5.54-3.06,2.96-5.86,6.81-8.39,11.56s-4.54,10.29-6.02,16.62c-.63,2.75-1.16,5.97-1.58,9.66-.42,3.7-.63,7.44-.63,11.24s.21,7.34.63,10.61c.42,3.28.95,6.07,1.58,8.39,1.05,3.59,2.48,6.7,4.28,9.34,1.79,2.64,3.85,4.7,6.17,6.17,1.9,1.27,3.22,1.9,3.96,1.9s1.84-.74,3.32-2.22c1.05-1.27,2.06-2.9,3.01-4.91.95-2,1.85-4.8,2.69-8.39.84-3.59,1.74-8.07,2.69-13.46.95-5.38,1.95-12.19,3.01-20.42.63-4.43,1.11-7.92,1.42-10.45s.63-4.43.95-5.7.63-2.11.95-2.53c.32-.42.79-.74,1.42-.95Z"></path><path class="cls-29" d="M468.39,58.36c1.05-.21,1.9-.21,2.53,0,.63.21,1.05.95,1.27,2.22.21,1.27.26,3.17.16,5.7-.11,2.53-.37,6.02-.79,10.45-.21,2.11-.42,5.65-.63,10.61-.21,4.96-.42,10.4-.63,16.31-.21,5.91-.42,11.82-.63,17.73-.21,5.91-.32,11.08-.32,15.52-.21,8.86-.37,15.67-.48,20.42-.11,4.75-.27,7.12-.47,7.12,0,.21-.42.74-1.27,1.58-2.11,2.11-4.01,2-5.7-.32-.21-.21-.43-.43-.63-.63-.21-.21-.43-.74-.63-1.58-.21-.84-.32-2.22-.32-4.12v-25.65l-2.85,9.5c-2.32,8.23-4.8,14.14-7.44,17.73-2.64,3.59-5.97,5.59-9.97,6.02-7.6.84-14.04-2.17-19.31-9.02-5.28-6.86-8.44-16.31-9.5-28.34-.21-4.22.1-9.18.95-14.88.84-5.7,2.06-11.4,3.64-17.1,1.58-5.7,3.59-11.03,6.02-15.99,2.42-4.96,5.12-8.71,8.07-11.24,4.22-3.8,9.02-6.28,14.41-7.44,5.38-1.16,9.66-.58,12.82,1.74,1.47,1.06,2.48,1.58,3.01,1.58s1.21-.21,2.06-.63c1.27-1.27,2.32-2.64,3.17-4.12.84-2.11,2-3.17,3.48-3.17ZM441.79,156.2c2.32-1.05,4.43-3.64,6.33-7.76,1.9-4.12,3.59-9.02,5.07-14.72,1.47-5.7,2.64-11.76,3.48-18.21.84-6.44,1.37-12.51,1.58-18.21.21-5.7,0-10.71-.63-15.04-.64-4.32-1.8-7.12-3.48-8.39-3.8-3.17-8.5-3.17-14.09,0-5.59,3.17-10.29,8.66-14.09,16.47-.85,2.11-1.69,4.75-2.53,7.91-.85,3.17-1.48,6.44-1.9,9.82-.42,3.38-.79,6.7-1.11,9.97-.32,3.28-.47,5.97-.47,8.07,0,6.55.9,12.24,2.69,17.1,1.79,4.86,4.17,8.66,7.12,11.4,4.43,4.01,8.44,4.54,12.03,1.58Z"></path><path class="cls-29" d="M567.18,71.66c-.85-1.9-2.06-2.85-3.64-2.85s-3.27.79-5.07,2.37c-1.8,1.58-3.64,3.85-5.54,6.81-1.9,2.96-3.69,6.44-5.38,10.45-.85,2.11-1.74,4.65-2.69,7.6-.95,2.96-1.85,5.91-2.69,8.87-.85,2.96-1.58,5.86-2.22,8.71-.63,2.85-1.16,5.12-1.58,6.81-.21,1.27-.48,3.59-.79,6.97-.32,3.38-.69,7.28-1.11,11.72-.43,4.43-.79,9.02-1.11,13.77s-.58,9.02-.79,12.82c0,.84-.42,1.79-1.27,2.85-.85,1.05-2.53,1.58-5.07,1.58-1.06,0-2.11-.27-3.17-.79-1.06-.53-1.58-1.32-1.58-2.37.42-4.85.79-11.24,1.11-19.16.32-7.92.58-15.94.79-24.06.21-8.12.37-15.56.48-22.32.1-6.75.16-11.29.16-13.62-.42-10.13-1.8-15.94-4.12-17.41-.63-.42-2.22.11-4.75,1.58-2.53,1.48-4.86,3.28-6.97,5.38-4.01,3.8-7.28,9.24-9.81,16.31-2.53,7.07-4.43,15.67-5.7,25.8-.21,2.96-.53,6.44-.95,10.45-.43,4.01-.79,7.87-1.11,11.56-.32,3.7-.58,6.97-.79,9.82-.21,2.85-.32,4.7-.32,5.54.21.63.32,2.22.32,4.75v8.55c-.63.42-1.38,1.05-2.22,1.9h-.32c-1.27-.63-2.43-1.32-3.48-2.06-1.06-.74-2.21-1.43-3.48-2.06h-.32c0-4.64.05-11.56.16-20.74.1-9.18.26-19.26.47-30.24,0-11.61.05-20.9.16-27.86.1-6.97.26-12.35.48-16.15.21-3.8.42-6.38.63-7.76.21-1.37.42-2.27.63-2.69,1.05-1.05,2.22-1.53,3.48-1.42,1.27.11,2.11.69,2.53,1.74.42.43.68,2.06.79,4.91.1,2.85.16,6.07.16,9.66v12.67l2.85-5.7c3.37-7.39,8.12-13.3,14.25-17.73,4.22-2.95,7.7-4.75,10.45-5.38,2.74-.63,5.38-.21,7.91,1.27,1.69,1.06,3.27,3.12,4.75,6.17,1.47,3.06,2.32,6.49,2.53,10.29.21,1.69.42,3.59.64,5.7.21,2.11.32,3.8.32,5.07l.63,4.75,2.85-8.23c1.69-4.85,3.37-8.76,5.07-11.72,1.69-2.95,3.8-5.59,6.33-7.91,4.43-4.43,8.97-6.81,13.62-7.12,4.64-.32,8.12,1.42,10.45,5.22,1.27,2.11,2.27,4.75,3.01,7.92.74,3.17,1.27,7.55,1.58,13.14.32,5.6.53,12.82.63,21.69.1,8.87.16,20.06.16,33.56v25.33c0,2.32-1.8,3.48-5.38,3.48-2.11,0-3.17-1.27-3.17-3.8v-13.14c0-4.96-.11-10.5-.32-16.62,0-12.24-.06-22.16-.16-29.76-.11-7.6-.32-13.72-.63-18.36-.32-4.64-.69-8.12-1.11-10.45-.42-2.32-.95-4.32-1.58-6.02Z"></path><path class="cls-29" d="M598.84,108.39v28.5c0,7.39-.06,13.3-.16,17.73-.11,4.43-.32,7.55-.63,9.34s-.79,3.01-1.42,3.64c-.85.84-1.9,1.27-3.17,1.27s-2.32-.53-3.17-1.58c-.42-.42-.69-1.53-.79-3.32-.11-1.79-.16-4.8-.16-9.02,0-1.47.05-3.96.16-7.44.1-3.48.21-7.49.32-12.03.1-4.54.21-9.5.32-14.88.1-5.38.16-10.81.16-16.31.21-9.92.37-17.57.48-22.96.1-5.38.21-9.39.32-12.03.1-2.64.26-4.32.47-5.07.21-.74.53-1.21.95-1.42,1.05-.42,1.74-.63,2.06-.63s1,.43,2.06,1.27l1.9,1.58.32,43.38ZM600.74,20.68c2.11,2.75,2.22,5.91.32,9.5-.43,1.27-1.32,2.38-2.69,3.33-1.37.95-2.59,1.42-3.64,1.42-.63,0-1.69-.74-3.17-2.22-1.27-1.27-1.9-2.9-1.9-4.91s.63-3.96,1.9-5.86c1.27-2.11,2.8-3.27,4.59-3.48,1.79-.21,3.33.53,4.59,2.22Z"></path><path class="cls-29" d="M614.35,162.85c-1.48-1.27-2.22-2.85-2.22-4.75s.74-3.37,2.22-4.43c1.05-.84,1.85-1.21,2.38-1.11.53.11,1.32.58,2.38,1.42,1.9,1.48,2.79,3.22,2.69,5.22-.11,2.01-1.32,3.54-3.64,4.59-.85.63-2.11.32-3.8-.95Z"></path><path class="cls-29" d="M716.61,71.66c-.85-1.9-2.06-2.85-3.64-2.85s-3.27.79-5.07,2.37c-1.8,1.58-3.64,3.85-5.54,6.81-1.9,2.96-3.69,6.44-5.38,10.45-.85,2.11-1.74,4.65-2.69,7.6-.95,2.96-1.85,5.91-2.69,8.87-.85,2.96-1.58,5.86-2.22,8.71-.63,2.85-1.16,5.12-1.58,6.81-.21,1.27-.48,3.59-.79,6.97-.32,3.38-.69,7.28-1.11,11.72-.43,4.43-.79,9.02-1.11,13.77s-.58,9.02-.79,12.82c0,.84-.42,1.79-1.27,2.85-.85,1.05-2.53,1.58-5.07,1.58-1.06,0-2.11-.27-3.17-.79-1.06-.53-1.58-1.32-1.58-2.37.42-4.85.79-11.24,1.11-19.16.32-7.92.58-15.94.79-24.06.21-8.12.37-15.56.48-22.32.1-6.75.16-11.29.16-13.62-.42-10.13-1.8-15.94-4.12-17.41-.63-.42-2.22.11-4.75,1.58-2.53,1.48-4.86,3.28-6.97,5.38-4.01,3.8-7.28,9.24-9.81,16.31-2.53,7.07-4.43,15.67-5.7,25.8-.21,2.96-.53,6.44-.95,10.45-.43,4.01-.79,7.87-1.11,11.56-.32,3.7-.58,6.97-.79,9.82-.21,2.85-.32,4.7-.32,5.54.21.63.32,2.22.32,4.75v8.55c-.63.42-1.38,1.05-2.22,1.9h-.32c-1.27-.63-2.43-1.32-3.48-2.06-1.06-.74-2.22-1.43-3.48-2.06h-.32c0-4.64.05-11.56.16-20.74.1-9.18.26-19.26.47-30.24,0-11.61.05-20.9.16-27.86.1-6.97.26-12.35.47-16.15.21-3.8.42-6.38.63-7.76.21-1.37.42-2.27.63-2.69,1.05-1.05,2.22-1.53,3.48-1.42,1.27.11,2.11.69,2.53,1.74.42.43.68,2.06.79,4.91.1,2.85.16,6.07.16,9.66v12.67l2.85-5.7c3.37-7.39,8.12-13.3,14.25-17.73,4.22-2.95,7.7-4.75,10.45-5.38,2.74-.63,5.38-.21,7.91,1.27,1.69,1.06,3.27,3.12,4.75,6.17,1.47,3.06,2.32,6.49,2.53,10.29.21,1.69.42,3.59.64,5.7.21,2.11.32,3.8.32,5.07l.63,4.75,2.85-8.23c1.69-4.85,3.37-8.76,5.07-11.72,1.69-2.95,3.8-5.59,6.33-7.91,4.43-4.43,8.97-6.81,13.62-7.12,4.64-.32,8.12,1.42,10.45,5.22,1.27,2.11,2.27,4.75,3.01,7.92.74,3.17,1.27,7.55,1.58,13.14.32,5.6.53,12.82.63,21.69.1,8.87.16,20.06.16,33.56v25.33c0,2.32-1.8,3.48-5.38,3.48-2.11,0-3.17-1.27-3.17-3.8v-13.14c0-4.96-.11-10.5-.32-16.62,0-12.24-.06-22.16-.16-29.76-.11-7.6-.32-13.72-.63-18.36-.32-4.64-.69-8.12-1.11-10.45-.42-2.32-.95-4.32-1.58-6.02Z"></path><path class="cls-29" d="M790.06,147.02c2.53-4.43,4.64-6.65,6.33-6.65.84,0,1.69.43,2.53,1.27,1.9,1.9,1.27,5.7-1.9,11.4-2.75,5.49-5.97,9.45-9.66,11.87-3.7,2.42-8.6,3.64-14.72,3.64-8.45,0-15.2-2.06-20.26-6.17s-8.87-10.29-11.4-18.52c-.42-1.69-.79-4.06-1.11-7.12-.32-3.06-.53-6.38-.63-9.97-.11-3.59-.11-7.12,0-10.61.1-3.48.26-6.49.47-9.02,1.27-9.5,3.85-18.15,7.76-25.96,3.9-7.81,8.28-12.87,13.14-15.2,1.27-.63,2.69-1.05,4.28-1.27,1.58-.21,3.22-.32,4.91-.32,3.59,0,6.97.69,10.13,2.06,3.17,1.37,5.7,3.64,7.6,6.81,1.47,2.11,2.27,4.59,2.38,7.44.1,2.85-.48,5.54-1.74,8.07-1.27,2.75-3.22,5.38-5.86,7.92-2.64,2.53-5.6,4.8-8.87,6.81-3.27,2.01-6.7,3.59-10.29,4.75-3.59,1.16-6.97,1.74-10.13,1.74h-4.43l-.63,6.33c-.21,2.11-.27,4.43-.16,6.97.1,2.53.32,5.07.63,7.6s.68,4.96,1.11,7.28c.42,2.33.95,4.22,1.58,5.7,1.9,5.07,4.27,8.82,7.12,11.24,2.85,2.43,6.7,3.96,11.56,4.59,8.65,1.27,15.41-2.95,20.26-12.66ZM750.17,101.11c0,1.69,2.85,1.58,8.55-.32,2.53-.63,5.01-1.63,7.44-3.01,2.42-1.37,4.69-2.85,6.81-4.43,2.11-1.58,3.9-3.27,5.38-5.07,1.47-1.79,2.32-3.43,2.53-4.91.63-2.95-.27-5.38-2.69-7.28-2.43-1.9-5.12-2.85-8.07-2.85s-5.28.74-6.97,2.22c-1.06.63-2.32,2.06-3.8,4.28-1.48,2.22-2.9,4.7-4.28,7.44-1.37,2.75-2.53,5.38-3.48,7.92s-1.42,4.54-1.42,6.02Z"></path></g><g><path class="cls-20" d="M.66,164.75c5.71.64,11.42,1.29,17.13,1.93-.33,5.11-.66,10.23-.98,15.34-5.38-5.76-10.76-11.51-16.15-17.27h0Z"></path><path class="cls-17" d="M30.25,143.82c-1.56-5.17-3.12-10.34-4.67-15.52l7.71,8.43c-1.01,2.36-2.02,4.72-3.03,7.08h0Z"></path><g><path class="cls-30" d="M53.08,204.94c8.6,9.55,17.19,19.12,25.77,28.67l6.51-32.22c-19.28-8.27-38.56-16.54-57.83-24.82,8.52,9.45,17.04,18.9,25.55,28.36h0Z"></path><polygon class="cls-15" points="83.65 210.56 29.72 177.55 85.36 201.4 83.65 210.56"></polygon><path class="cls-18" d="M64.83,193.04c-12.87-5.39-25.3-10.89-37.3-16.46,27.13-2.78,54.25-5.56,81.38-8.34-7.85,11.05-15.7,22.1-23.55,33.16-6.77-2.68-13.62-5.46-20.53-8.36h0Z"></path><g><path class="cls-30" d="M65.03,172.8c14.63-1.49,29.25-3.01,43.88-4.55l-16.42-36.68c-21.65,15.01-43.3,30.01-64.95,45.01,12.5-1.25,25-2.51,37.5-3.79h0Z"></path><g class="cls-28"><path class="cls-20" d="M83.31,137.44c1.51,1.62.94,4.18,1.08,6.4.18,2.71,1.57,5.19,2.01,7.87.43,2.68-.64,6.05-3.31,6.56-.9.17-1.83-.02-2.75-.07-3.23-.18-6.49,1.53-8.2,4.27-.53.86-.96,1.85-1.82,2.37-.66.4-1.46.46-2.23.57-2.58.38-5,1.48-7.54,2.11-2.54.62-5.42.69-7.55-.82-2.76-1.96-3.31-5.87-2.78-9.2.53-3.34,1.88-6.55,1.99-9.93"></path></g></g><path class="cls-18" d="M67.09,12.19C44.73,8.13,22.36,4.06,0,0c5.04,8.79,10.07,17.75,15.1,26.91,4.8,8.75,9.46,17.42,13.98,25.99,3.38-3.83,7.37-8.3,11.89-13.26,2.81-3.08,7.03-7.72,12.39-13.37,3.58-3.77,8.21-8.56,13.75-14.08h0Z"></path><g><path class="cls-18" d="M0,0c11.97,14.68,23.94,29.35,35.91,44.02,4.61-5.41,9.62-10.99,15.04-16.66,5.27-5.51,10.46-10.63,15.53-15.36C44.73,7.84,21.75,4.15,0,0H0Z"></path><g class="cls-21"><path class="cls-18" d="M33.16,5.16c.93,1.19.56,3.03-.48,4.13-1.04,1.1-2.56,1.59-4.04,1.89-1.96.39-3.98.5-5.97.33-1.16-.1-2.35-.31-3.3-.99-1.39-.99-1.97-2.75-2.46-4.39-.25-.84-.5-1.71-.41-2.58.11-1.06.74-2.01,1.43-2.83,1.65-1.95,3.79-3.47,6.18-4.37"></path></g></g><path class="cls-18" d="M120.65,69.45c4.58,22.57,9.3,46.24,13.88,68.81-18.04-10.11-36.07-20.23-54.1-30.34,8.66-6.85,17.69-14.66,26.84-23.52,4.81-4.67,9.17-10.4,13.38-14.95h0Z"></path><g><path class="cls-18" d="M134.52,138.26c-15.43-12.07-31.27-24.38-46.7-36.44,5.28-4.82,11.09-9.71,16.56-15.2,5.8-5.82,11.21-11.56,16.25-17.16,4.62,22.94,9.25,45.87,13.88,68.81Z"></path><g class="cls-24"><path class="cls-20" d="M131.39,106.53c.04.48.07.96.11,1.43-1.98.99-3.4,2.8-5.07,4.25-1.67,1.45-3.96,2.6-6.05,1.86-1.96-.69-3.14-2.86-5.13-3.5-.93-.3-1.95-.22-2.88-.53-2.61-.87-3.32-4.28-2.9-6.99,1.31-8.52,9.57-14.78,18.12-15.88,1.47-.19,3.26-.1,4.01,1.18"></path></g></g><g><path class="cls-19" d="M133.9,54.38c-10.32,12.57-23.36,26.58-39.58,40.59-21.9,18.9-43.26,32.32-61.04,41.77-4.2,9.82-8.41,19.65-12.61,29.47,2.28,3.46,4.57,6.92,6.86,10.38-3.58,1.81-7.15,3.63-10.72,5.44-5.38-5.76-10.76-11.51-16.15-17.27l-.18-66.51,28.1-45.74L75.58,2.62c6,.45,13.67,1.56,22.25,4.25,8.41,2.63,15.23,6.01,20.36,9,3.51,5.36,7.4,12.31,10.65,20.84,2.47,6.49,4.04,12.49,5.06,17.67h0Z"></path><g class="cls-22"><path class="cls-1" d="M134.61,57.91c-5.41,5.8-10.83,11.6-16.24,17.41-2.57,2.76-6.22,5.77-9.68,4.27-2.42-1.05-3.44-3.86-4.22-6.37-1.28-4.12-2.57-8.36-2.25-12.66.31-4.36,2.26-8.43,3.38-12.66,1.12-4.23,1.29-9.17-1.51-12.54-1.31-1.58-3.13-2.64-4.58-4.09-3.2-3.18-4.33-7.84-5.32-12.24-1.1-4.88-2.13-10.28.31-14.65,2.84-5.07,9.73-6.81,15.31-5.19,5.58,1.62,10.02,5.88,13.61,10.46,11.08,14.17,16,32.99,13.26,50.77"></path></g></g><path class="cls-20" d="M86.18,52.26c10.67-12.12,21.35-24.25,32.02-36.38,3.33,5.03,7.02,11.55,10.18,19.53,2.79,7.06,4.48,13.54,5.53,18.97-3.56,4.2-12.28,14.39-22.07,24.74-.6.63-9.75,10.25-17.73,17.4-.15.14-.28.25-.38.34-5.17,4.6-9.75,8.3-13.28,11.06,1.92-18.56,3.83-37.11,5.75-55.66h0Z"></path><g><path class="cls-20" d="M81.4,53.38c-20.29,23.68-40.57,47.37-60.86,71.05-1.24,19.2-2.49,38.39-3.73,57.58-5.38-5.76-10.76-11.51-16.15-17.27l-.18-66.51,28.1-45.74c17.61.29,35.21.59,52.82.88h0Z"></path><g class="cls-23"><g><g class="cls-27"><path class="cls-18" d="M25.08,125.39c-3.18.26-5.37-3.36-6.11-6.59-1.13-4.92-.4-10.83,3.58-13.67,3.47-2.47,8.49-1.98,11.61-4.9,2.69-2.52,3.07-6.81,2.43-10.53-.65-3.73-2.12-7.31-2.49-11.08-.28-2.91.12-5.88,1.16-8.59.74-1.94,2.08-3.92,4.09-4.16,2.12-.25,4.02,1.55,6.14,1.72,2.69.22,4.8-2.11,6.72-4.03,2.24-2.25,4.82-4.23,7.83-5.1,3.01-.87,6.49-.49,8.93,1.57,3.63,3.07,3.93,8.97,1.92,13.29-2,4.33-5.76,7.44-9.43,10.36-6.6,5.24-13.46,10.5-17.91,17.79-3.19,5.23-5.12,11.47-9.55,15.61-3.13,2.92-7.43,4.74-9.31,8.65"></path></g><g class="cls-27"><path class="cls-18" d="M-54.2,133.76c-.55-2.84,2.81-5.32,5.92-6.43,4.74-1.69,10.64-1.83,13.81,1.38,2.76,2.8,2.75,7.42,5.92,9.85,2.73,2.09,6.99,1.86,10.61.77,3.62-1.09,7-2.91,10.68-3.76,2.84-.65,5.81-.69,8.57-.11,1.98.41,4.06,1.36,4.48,3.14.45,1.88-1.15,3.84-1.12,5.8.04,2.46,2.52,4.07,4.6,5.54,2.42,1.72,4.61,3.79,5.76,6.4,1.14,2.61,1.09,5.81-.72,8.3-2.69,3.7-8.46,4.77-12.91,3.54-4.45-1.23-7.86-4.21-11.08-7.13-5.79-5.26-11.61-10.76-19.21-13.8-5.45-2.18-11.77-3.08-16.27-6.53-3.17-2.43-5.37-6.08-9.39-7.26"></path></g></g></g></g><g><path class="cls-20" d="M85.75,56.53c-20.06,23.92-40.12,47.85-60.18,71.77-.57,4.59-1.06,8.34-1.41,10.93-1.14,8.59-1.32,9.3-1.91,14.26-.2,1.7-.51,4.44-1.03,8.48-.23,1.78-.42,3.25-.56,4.22,4.2-9.82,8.41-19.65,12.61-29.47,6.44-3.36,13.08-7.06,19.88-11.1,9.88-5.88,18.96-11.84,27.27-17.71,1-9.43,1.99-18.86,2.96-28.3.8-7.7,1.58-15.4,2.37-23.09h0Z"></path><g class="cls-26"><g class="cls-27"><path class="cls-18" d="M39.52,135.6c-.69-1.2-.47-2.76.21-3.96.68-1.2,1.75-2.13,2.8-3.03,2.87-2.45,5.8-4.93,7.81-8.12,1.7-2.7,2.7-5.83,4.67-8.35,2.7-3.43,7.19-5.37,11.53-4.98,4.35.39,8.42,3.1,10.46,6.95"></path></g></g></g><g><path class="cls-18" d="M42.4,251.35l36.46-17.73c-17.11-19.01-34.21-38.02-51.32-57.04,4.96,24.92,9.91,49.84,14.87,74.76h0Z"></path><g class="cls-25"><path class="cls-18" d="M68.82,246.37c.23-2.83,2.42-5.82.93-8.24-.93-1.51-2.94-1.96-4.72-1.91-1.78.05-3.58.46-5.31.09-2.81-.6-4.8-3.09-6.14-5.62-1.34-2.53-2.3-5.33-4.19-7.48-1.89-2.16-5.13-3.52-7.66-2.18-.47.25-.91.59-1.43.74-1.61.47-3.12-1.05-3.79-2.59s-.99-3.32-2.23-4.45c-1.29-1.18-3.23-1.31-4.97-1.09-4.37.55-8.48,2.96-11.1,6.5-2.62,3.54-3.71,8.18-2.95,12.52.42,2.39,1.41,4.73,3.14,6.44,3.06,3.02,7.71,3.51,11.71,5.06,1.84.72,3.74,1.87,4.28,3.77.32,1.12.12,2.38.67,3.4.33.61.88,1.06,1.45,1.47,3.5,2.47,7.96,3.53,12.18,2.89"></path></g></g><path class="cls-20" d="M65.15,53.11c-12.2-.2-24.39-.41-36.58-.61,2.85-3.17,6.62-7.33,11.07-12.17,0,0,3.21-3.49,6.37-6.88,10.96-11.77,27.85-29.06,29.57-30.83,6,.45,13.67,1.56,22.25,4.25,8.41,2.63,15.23,6.01,20.36,9-10.71,12.53-21.43,25.06-32.14,37.6-6.97-.12-13.93-.24-20.9-.36h0Z"></path><path class="cls-13" d="M86.06,53.41c2.32,14.7,4.62,29.3,6.93,44-2.12,1.85-4.29,3.81-6.57,5.69-2.02,1.67-4.02,3.28-6,4.82,0-.07.07-.64.08-.71,1.47-14.2,5.07-48.06,5.25-50.68.01-.13.07-.94.18-2.04.05-.45.09-.82.12-1.09h0Z"></path><path class="cls-14" d="M86.12,53.46c-15.46-4.41-30.92-8.82-46.38-13.23-.9.98-2.71,2.98-3.61,3.96-2.52,2.77-5.04,5.54-7.56,8.31,19.18.32,38.36.64,57.55.96h0Z"></path><path class="cls-11" d="M83.99,53.43c-9.69,11.34-19.38,22.7-29.06,34.06-10.77,12.64-21.53,25.28-32.28,37.92-2.01,19.05-4.02,38.1-6.02,57.15,1.31-19.38,2.62-38.75,3.92-58.12,20.29-23.68,40.57-47.37,60.86-71.05.86.02,1.73.03,2.59.04h0Z"></path><path class="cls-20" d="M20.87,166.5c1.04,1.71,2.13,3.4,3.31,5.18,1.12,1.7,2.24,3.34,3.35,4.91,5.28-3.65,10.55-7.31,15.83-10.96-3.77.32-7.72.56-11.85.7-3.69.12-7.23.21-10.64.16h0Z"></path><path class="cls-8" d="M20.67,166.2c.39-4.91.78-9.84,1.18-14.78.67-8.21,1.37-16.37,2.08-24.49,10.3-12.12,20.59-24.25,30.86-36.4,10.43-12.34,20.85-24.69,31.26-37.05-.08.6-.15,1.22-.21,1.86-.04.41-.07.81-.1,1.2-10.16,12.11-20.32,24.23-30.48,36.35-9.9,11.81-19.8,23.61-29.7,35.42-.72,5.83-1.34,10.5-1.78,13.7-.55,3.98-.86,6.01-1.35,10.04-.42,3.41-.61,5.07-.87,7.22-.2,1.63-.49,4.01-.9,6.94h0Z"></path><path class="cls-16" d="M60.39,46.2l1.75-2.72c1.18-1.97,1.18-3.24,1.86-4.37,1.4-2.34,3.18-4.28,5.43-5.18,4.52-1.81,10.04.87,13.93-3.39,1.73-1.89,3.29-4.91,5.75-4.94,2.68-.94,5.67-.26,8.24.97,2.17,1.03,4.21,2.41,6.34,3.51,1.97,1.02,3.93,1.56,6.04,1.93,1.68.3,3.48.66,4.85,2.02,1.24,1.23,1.83,3.15,1.66,5.12-.47,5.04-4.08,7.46-7.47,9.05-1.93.9-3.86,1.73-5.66,3.02-1.76,1.27-3.37,2.84-4.78,4.68-1.34,1.75-2.56,3.73-3.49,5.86-.92,2.1-1.51,4.35-2.16,6.59-.44,1.5-.86,2.85-1.6,4.28-.09.18-.5.76-.96,1.62-.3.57-.52,1.05-.65,1.37-1.14-7.39-2.28-14.78-3.41-22.17-8.55-2.43-17.11-4.85-25.66-7.27h-.01Z"></path><path class="cls-1" d="M79.86,108.72c2.06-18.42,4.13-36.83,6.19-55.25-19.33-.28-38.65-.56-57.98-.84,7.35-8.28,15.06-16.69,23.13-25.19,8.22-8.66,16.36-16.92,24.37-24.81,5.92.44,13.44,1.53,21.85,4.12,8.61,2.65,15.57,6.09,20.77,9.13,3.25,5.07,6.8,11.5,9.9,19.23,2.85,7.14,4.65,13.7,5.81,19.27-6.94,8.47-14.82,17.37-23.71,26.44-10.43,10.64-20.67,19.9-30.33,27.91h0Z"></path><path class="cls-10" d="M66.48,12c-7.39,5.37-14.85,10.94-22.4,16.69-6.72,5.13-13.28,10.25-19.67,15.33.92,1.7,1.83,3.41,2.74,5.16.54,1.04,1.08,2.08,1.61,3.11.5-.55,7.53-8.27,8.02-8.8,1.91-2.1,2.48-2.72,3.38-3.71.98-1.07,3.58-3.91,7.28-7.85,4.29-4.58,7.58-8.02,10.95-11.54,2.03-2.12,4.79-4.99,8.09-8.4h0Z"></path><path class="cls-9" d="M120.65,69.47c-5.09,7.22-10.54,14.62-16.36,22.15-5.54,7.17-11.06,13.98-16.49,20.44-2.45-1.37-4.91-2.75-7.36-4.12,7.04-5.58,14.5-12.01,22.13-19.38,6.76-6.53,12.78-12.97,18.1-19.09h0Z"></path><path class="cls-7" d="M33.59,46.99C6.69,9.8-.14.1,0,0c.09-.07,3.21,4.05,10.25,12.66,1.11,1.36,2.05,2.5,2.91,3.54,3.79,4.6,6.57,7.93,7.19,8.68,2.49,2.99,6.97,8.45,15.73,19.34-.84.92-1.67,1.85-2.5,2.77h0Z"></path><path class="cls-12" d="M134.52,138.26c-3.57-2.17-7.16-4.39-10.76-6.68-13.94-8.83-27.02-17.85-39.29-26.92.41-.48,3.02-2.43,3.35-2.85,2.27,1.81,6.39,5.05,10.97,8.64,6.08,4.76,10.42,8.11,13.83,10.76,5.19,4.02,12.59,9.77,21.89,17.05Z"></path><path class="cls-5" d="M20.61,65.47c20.26-4.03,40.52-8.05,60.78-12.08-17.61-.29-35.21-.59-52.82-.88-2.65,4.32-5.31,8.64-7.96,12.96h0Z"></path><path class="cls-4" d="M85.68,57.3c-.17,1.74-.4,3.99-.66,6.63-.29,2.84-.52,5.04-.67,6.52-.47,4.49-.58,5.37-.97,9.16-.17,1.69-.16,1.64-.43,4.24-.49,4.79-.57,5.36-1.04,9.84-.43,4.16-.47,4.66-.88,8.65-.25,2.36-.46,4.29-.6,5.58-1.7,1.2-3.44,2.41-5.19,3.61-3.04,2.08-6.06,4.09-9.04,6.01,3.07-9.86,6.23-19.8,9.47-29.81,3.32-10.26,6.66-20.41,10.04-30.44h-.01Z"></path><path class="cls-3" d="M24.91,172.79c6.15-2.39,12.29-4.78,18.44-7.16-5.28,3.65-10.55,7.31-15.83,10.96l-2.62-3.79h0Z"></path><polygon class="cls-2" points="108.91 168.25 27.53 176.59 102.2 153.28 108.91 168.25"></polygon></g><path class="cls-20" d="M17.6,169.62c3.31,2.32,6.62,4.64,9.93,6.96-3.58,1.81-7.15,3.63-10.72,5.44.27-4.13.53-8.27.79-12.4h0Z"></path></g></g></g></svg> 